<mxfile host="app.diagrams.net" agent="Mozilla/5.0 (Macintosh; Intel Mac OS X 10_15_7) AppleWebKit/605.1.15 (KHTML, like Gecko) Version/18.1.1 Safari/605.1.15" version="25.0.3" pages="3">
  <diagram name="Resource Management Groups" id="uNt6FPU2vQFfssPGUR2i">
    <mxGraphModel dx="1488" dy="827" grid="1" gridSize="10" guides="1" tooltips="1" connect="1" arrows="1" fold="1" page="1" pageScale="1" pageWidth="850" pageHeight="1100" math="0" shadow="0">
      <root>
        <mxCell id="0" />
        <mxCell id="1" parent="0" />
        <mxCell id="19m5hGe9aqBpNAfWedUR-1" value="" style="shape=image;imageAspect=0;aspect=fixed;verticalLabelPosition=bottom;verticalAlign=top;image=data:image/png,iVBORw0KGgoAAAANSUhEUgAAAtUAAAE+CAIAAADNunvgAAAACXBIWXMAAAsSAAALEgHS3X78AAAgAElEQVR4nOydC3wT15X/R35gHoYhkAckWErCOg9AaiDJ/hsY0Za2SUHqtikpUKktpGzJSptC24RW+pC0aRNWakjTQrLWQheaR60lNNk0WwtKtqUtHgjdpJB6MCVxIUgGTJJCGNtgg23p/xkduBlGD8u23vp9P/74I43u3Ln33Dt3zpxz7z26SCTCZYuOvsjb3crlbh1VlrWLAgAAACDfqMhOeX59utd/svft7jA7csPwMtv4is+OzVIBAAAAAJA/ZNz+cbwn8kDonFrzUHPD8LIN11aNLtehSwAAAAClQ2b1j46+yJcOdbf1JLsEVBAAAACg1MjsPIxHjp1PrnxwHPd2d/iJEz3oeAAAAEDpkEH9463u8B86+lJJ2XC69/ilasrp7r4/HD7zh8NnMlY6AAAAAOSMDE7//PXp3g+/aI0g2u9/aO+1ja/kOO7Ntu5v/vrEH9+5oHnww8uX3Dr2kU9dMXZ4OXoJAAAAUBxk0P7xdleYi0Qu/HGavw+h39/o7CPl4+MbjjDlg+M4ubtv7a6TH99wpN/LWa1WQxRJkuhIKBSiI1arNVOVBAkIBAIGg8HpdA5UQLIsGwwGk8k0RMn6fD6DweDz+VK8qDnKEC+aUURRHJxIC6WCAICSIoP6B9M9kv8R5KhZ8stjcnccl81f2rof+e17KV5XFEX6EAgEeJ5PW31ygdfrhfKUIUKhkNPp9Hq9RVm7UqggAKCgydo+YJfaP+KpJG+2df+lrTvR+c/8+XS/1+Cj+P1++hoIBNJahWwjy3KKr+8gFofDEQwGHQ5HItlIksR6CM/zjVHyWZCCIASDwbq6uhTTF1wFAQAlRQb1jxuH61TqRYz75VLl49ZRZclnmwZPp7RGxmg0hi4iSZIgCOwn8ggQdrudHbFarWazmT6EQiGyOrCUTAMgez65BpgZXJIk5vehF01NniaTieVGF+U4zu/3UyYmk4m0JcrEbrezi8qyTD4ISZLUTiXC6XSqC+Pz+dh1TSYTlc3v91MZDAaD2+1mWZFBRf1Zc3VKrIbV0WQy0SONKsVOYVVjUorNhITDiuSLwuSm/kywzElEmnOpCiyN0+nUSIBKSJKkkqszDAQCJCWfz2cymTROH3Vb07USdRU1Sc5ijRLbcKmLl7m02IXUv2oyyUQFAQAgjWRQ//j4mAouEiUcvuSvr0/5Y0eiXz/Bp2cmrMViocGUxnGj0aj+KRjF4XCIosgUC1mWGxoaHA4He190uVyU0mg0er1eURQDgYDX66UXULoEnUhDPOXp8/mY6UWW5cbGRovFIsuyKIqUlXgRt9tts9mCwaBer3e73WygFwShqamJ53mfz8fzfFNTE1WBTmcV8Xq9gUCACqnX69XVD4VCDQ0NdXV1gUDA7Xbr9fpgMOjxePx+f1yFQA0lFgSBHs/qnxoaGoLBIJVHk4+6anGlpMbr9YZCocbGxuSWCRKgxWJpamrS6/Ver1eWZc25JHxJkqhszCrAJJA8Q0EQKI3D4aB6qcXr9XpJvBaLxev1qptV01VSOYsVKVHDpShedpBMO1QX+hqbicViSW8FAQAgvcTXP4683/nT3/z1kf/+C/399Dd/PfJ+50Cve1t1+YwROi5G1Yj9OmNU2Y0jyj9+/agkuRnGVqZyUYvFwvM8jdd6vV5t/2AjLz3v2VPfaDTyPE8PeDIzhEIhSknTR0KhEI3+9ExlT9ZAIEBWFvYiK8syy5Oe6KRVsM9sWKcXUHY5OksQBJ7n9Xq9LMsag4caykFTGJYDXSi2wP0+Tmw2Gyut5uqkWJBWJMuyusDqU+JKSQ3Jk97gkxeG53mbzUbtQjqc5lwSvsViUWtmagn0m2Eq4qWqscSxXSWVs1iREjVciuLVlJN6ssPhoASJMklXBQEAIL1orQ5vBk998xev//Gv73KcjtNF/6K+km/94o2P3XzlT798+y2GcakXYOWkEUvfau/sUzws2kUvF6ku4x69VtE8bpk4/CMThyeaArLk1rGpXJFGTxo66YHKsFqtkiSx126mK2iQZdlqtfI8r7ZzJLmizWbzeDzsa4pvjR6PR1O8vEI9b5cs+YIgsCd9coEkoaGhgexJXq9XkiSN6hAXuhbP85pzNZpl6rAMB12L9DI48QYCAb/fr9frXS5XetsIAACywyX2j2d2Hpq+quGPB9/jyiu5yiqucjhXOeLiX9Uf3z41/aHAMzsPpV6wG0eWb7xx9PBIX7ivL9LbF+ntjfRE/3p7wz3K35W68Mab+aurLuzt8cwXr+Hj7fPxkYnDH/nUlSlelLwesixrHlGhUIjneZfLlXxRjCRJsizTyK6xZ5BuwTQMZmuhd81+HRwEe1vtd4YpTaeNfZFV55BI3YlNY7PZ6O02FArFNQDQEUqsFh0VQBAEm82W/KkWV0oaXFGo7pSerqt526YSknmJ2bHU55LwyQqSpEhJMqRuEPuWrzYXqS06yUnlrLgNl7p41dBEGZJGokzSW0EAAEgvH+ofz+w8dO+GXVxZOVdRxVVENY9hI7nKkcr/YVEtpGI4V1F173/uSV0F+fXp3geO9lSMGvX/RleW9ZHO0aP8ne8t7+v9+LgqXXX1f52OsM1P3zzefVV1+eTxw1gOw8p1066qmnJl1ZEPUt2jnZ5Msc4XmjRgMBiSP7GEKKIomkwmpqnYotAGDGxA53meLB80ZS/Fh4fFYnG5XJRVv7tc0ONEM//U5XIJgkBTFJNcxePxkG+IppvQs4qEYDKZYvUPv99PF/J4PJp5MzQPxul0Jlfd4kpJDU26tNvtgiB4PB5BECwWCxVSIz2e591ut9ls5nme5jFozuV5vr6+Xq/Xk/D73RUjNkN1Q6tTulwuh8NB4qXpGqk8nlM5K27DpS5eBvMh0mxWq9UaN5P0VhAAANLLhfhzbwZPTV/VoCgf5cMU/aN8mGICKa/gdFEFJRLmwr1cXw/Xe1756zv3e/cnP37zhCQleas7/EDoHAv+ct+Vlebq8mb5Q9/KVH74we7wY8fP09evXlb+8xePkvPlkU9dOePq4W0disJx6zUjHtz6Li2N+fk916TohckoZOvWuF1yBbn8h+jNIc9UQ0NDKg6RgoP0LTafN09IS8MBAEDhcmH+xzd/8boy1aO8Mmr8iHpeyod991M1350z8bIRikPE1RD60avvXFBHuPAj/y39YVVC/ePXp3sfOXZefWRnR5+5unwqP1xzkH1+7oO+zhv48pPn+86Hf/3XDutN1VePUcrW1tHL1uXe++Kx1CeCZAhZlmmxQD48Nmg2q16vxzOssEDDAQBAGa12USacllVwZZWK5aNyOFcx/H+dxmV3XHnfy8d17ubJa1qiM0JGRLUTxTTyx7f//mbwVFzp/aGjT6N8cBz3167w33svmYF6NnyJ/qFYyGtGXnvHFRzH/flYV1vHhdgxv/5rhzrNvS8eezPxHmWZg5wgzGNSV1eXQ1MB28jEarUajcb6+vpclQQMCDQcAAAwFP/LhZkfF2abKhM+vnjb1VvshtuePvznY10fpg33cT1nufPRv56zP1lo/OZnbtZI8vj5yJcOdSkLXmL4wriKL1z24Rraxo6+9e9p1RTF4CGdbms6vewfL1v2j5dxHPdPz4WOt/eqE3zsulF/WHYtWhAAAAAoXBQfx5G/dyqOFeWvXJnzUV75qdoxh0+dv0T5UGwl5YqBRDGTlHO68j8dPvX3M9pYLf/27vm4yoeicLT3qfWP38i9cZNNNI493Xq24WDHsn+8bO/xbo3ywXHcH99R4vJPu2p43NMBAAAAkM/ww8sqy3UX9/+grT4uaiG3XjP8z8fiuTnKyi6m0QVPnjl/qapx+Hxk95lwoiq/1xP5a1f45hGKxyd4LnykO2HKSbeOa/ntib3HuzXOF0b9m/IPPlWF3gUAAAAUHOGo7qDef0zHPn3QFaZppzF8mGbSOO12pa8okzbiGz+InR29N48YFnW+JEtZfWXVsFEV6//0gdYAc5HdwbPobwAAAEDholgjrr28OhoELnzxr++3f+u89Zrh148bpq1XuO9imkhNjP6x50yfNs7cpX875d6zUbVnp9xPyitvHJNI+eA47sB759DlAAAAgMJF0T8+fvNVF/WPPq5P2efjR79/9/Cp81tsk269ZgRtwvHdj12uKB/hHmUjEEUL6fvMR65R11rq6uvsDWtDzcX8vdHRu1Pu6eztS55szNXJ3CujqzIYNg8AAAAAmUbxv1x7RfXHbr7yj2+fUpSPsh6u7zzXW/7pnx1eP7/mjfuvpwLc999Hud7u6OZjPVy4547rx02ddJm6bE1dikrRb2m3njw3qlzXb8rKEWXDRpWfj5nfSsrHS/Y4AcYAAAAAUCio9j99KHBh53Vl8/UqrrxK2fOjLGppCIcVy4ey+Wk319PN9Xa/eL9wR+0lAVl+eOzsns5Ut0hPhW9NGPFpPsYBBAAAAIBCZvzI8qqKi+tfbjGM+/nXZ977n3suzjClDddp/3Wdav/1c1zv+W/fdYNG+eA4rqOnL9zXv/0jdd49H8f4AQAAecvB97tPd/dNjp05B/KSY+29t0wcgbbJFR+uf1kye7KywaiigkSUGR7lPdF9Pij+S+TC5I++nm/fdcMD86bFlvbQme5Igp0/BkckjHsYAFBgTB437CN4pBUIveGEqxxAFlCvv1VUkFsMl33zF2/88e2TXFjZZEzZFIT0j0jfHdePe2DelFjLB3HHqMpXT6ZzWewoXQqJAAAAAFCAVGiKfIth3B9W3Xnk/c5f/bn19Nme3x1496arx04aP3Jm7ZWaCacaHJPGtJ0919SenpWxX5gw+gtXatf3AgAAAKA4uDD/NBEd58Id59I5qwMAAIqVg+93jx9ZDv9LofDnY10TR1cWR10KC5p/io00AAAAAJBttP4XAAAAuUUURbvdri6CXq9vbGxEs4BiAvYPAADILwRBCEaxRQkGg+lVPmRZNplMoVAoLbn5fD63252WrEBJAf0DAABKCzlKuqqcLj0GlBrQPwAAoADw+/2GKFarVZIkjuPsUcxmMx0klYK+GgwG5sExGAxut5sOut3uUChkNpsppcZuYTAYvF6vwWDw+XySJFmtVk1Wsizb7XZWjFAo5Ha7/VEMBoNGEXE6nex0g8FABXY6nWazmTKkaxkMBpPJJIoix3Fut5tdy+fz0WeqJhWGpQRFAPQPAADId0RR9Pl8DQ0NwWBQEASv10sFliSprq6usbExFAr5/X6O4xobG4PBYFNTkyRJgUCAJWtqaqqrq/P7/bIskzensbHR4/FoKi6KIvl97Ha70Wgk108oFPL5fKRSyLLc1NQUDAZ5nne73R6PhzmJ9PoPI3ORBkOF0eRfH8Xn8wUCAaqRw+GgnBO1giRJHo8nGAxaLBb4eooG6B8AAJDvSJIUCoXIBuDz+ZilwWKxGI1GvV4vCAId9Hq9VqvVZDKpnSw2m43neYvFwvM82U4SYbPZSEvgOI60E71eb7PZAoGALMuiKHo8Hp7nOY5zuVyiKCZSGkRRtNlspJE4HA523GKx0MFAIGCz2YxGI0uQxLBB1aSUoSjosUUA9A8AACgALBZL8CKx01FJJyCjgsvl0lgjNMmygFovSX2uibp4cc+ig1mrBcgo0D8AACDfMRqNgUCg36kPsizzPC8IgiiK/RoJkqgFgiDQbAyaXur3+8l2IgiC2+2mE71eryAIpArEZiUIgt/vD4VC5DmKvYTFYvH7/WSMoQSUG1l6RFEkdxLBqqO+KCh0oH8AAEC+IwiCw+Fgcz/ZxA4N5PKgaaRJHtLkUrFarYnmUvA8X1dXJ4qiwWAwm81Go5FcJOSRMZlMBoNBlmX6arPZJEnSzD91OBw8z9NUU3KdaHA4HEajkTxKfr+/rq6O53kqv9lsdjqdpAOx8lBKdlFQBKRt//Udr25d9cA3OI6bc+e81T9+ig7+6AerfvXiZo7jVv/4qTl3zkOHAQAUMdh/PS6BQMDtdjc1NQ3udLvdrtfrM6F2YP/1XJGp/ddf37OLff7dq9tGjylgQ9mOV7cu//pXd7y6NQ/KAgAABYnP57NYLGg7oCHN+sc1k2o62mWyeex4dWtHe9q2uMkJB5v3q9UpAAAAqRAIBAwX0ev1LpcLYgMa0qx/3DhF8fO91axMKXr9tV2jx/C3f3QW+/XehZ+7wzj5DuPkO2fNIKNC3U8ev8M4efnXv0rHl3/9q4rTp12mr3cYJ9+78HPHjrZyHHfsaCtLduesGXcYJx88sJ/juF+9uJm+3jlrBuk9dBV1nvSZXbSjXVb/2tEu73h1K13rnrkfZxet+8njz29az3Hcqge+Qa4lxo5Xt1JKdmlWF7r685vWd7TLqx74BqsFXZqOaD5rrn7P3I9T1Z7ftJ7JgY4AAEBBoF6tQ3M7Bl3q+vp6zPkoStKsf9w0ddo1k2p+9+q2jnb59T27bpoyTf3rz1945TXp0Ku79irTmH/wkPqn16RDN02Z9vqeXa/vUbSW16RDr0mHVv/4qYMH9v/oB6s4jnvogftf37Nr3c+ee3HbH9hZr+/Z9aMfrPr8PYtekw5dM6nmRz9YRcoKx3G33zHr5y+8Qmk+/8VFq3/8lGKY+eVmevAfPLD/1V17V//4qdf37Kr7yeN0Ske7/PMXXvnK1+47eGD/jle3Or/1na987T6avMJmtFAyKvyru/Y6v/WdWCG8Jh36ytfuI8fNup8995p0iOrLyhaXY0db1/7s+XU/e+7Y0VaqSN1PHr9mUg2JQiNJAAAAoKBJ//yPOXfOIxfMsaOtc+66ZM7pjle3KkaFjevHjBnT0S6rdQXlf9RSwl79637y+MFm5fPxo6FjR1sPHth/zaSa2z8665pJNexhvGP7VmYnoBOPH70wAZtSss9XT9JT5seOtr6+Z1dHu3znrBlk1WDFuHGKcfQY/qap08jzkqiCpF3d/tFZo8fwn79nkWaCC1VZXWAqAFlZksiNCkzZHjywf8yYMaPH8GT1IbsOAAAAUDSkP/7+7XfMen7T+uc3rh89hv/knXNff+3C/AlaIHP7R2cx7SHR7BByfMy5cx4pEO3t7cmv+N3vr/78PYsGVMhrJtWo7Sj5NsN09Bh+9Bj+5y+88sov/+tXL24mhYmMMQCAfObQqfNon0Lh3c5erH/JIRnQP6Lv8ceOttKrPDtOZobb75g15855yV/oyZLx+S8uYpaJaybVUJ6v79l19SQ9mwxx+x2zfvXi5h3bt37+nkVkdOn3IU3mE/KwzLlz3vOb1qtnqGgYHfVZavwmlJ50ArKFxK7xYVd5fc+u2z86i5xKn79n0a+4zTte3Xqwef+cO+e9deCSXZDfOiCxDGmt8jWTapzf+s5onmceIgBAPqMfO4w7ff7k2b4ia6X16378qbmfnVx7Qx6UJZ2MG1FePJUpQNKvf5ALRnmu3zFLc3DHdsX/smP7VvK/JDr9819cdPDA/uVf/6paM3jsx08/9MD9y7/+1Wsm1bDT59w5z/mtVpr4qcRGijcbI5bHfvz0j36wKup8+cZNU6Z9/p5FzGsTW5FXfvlf5AliU0CumVTz3e+v/tEPVt05a0aSaRnrfvbcqge+QTNqb5oyzfX9x0gF2bF96/Ob1u94dWtUa7lEs6F5rLd/dJbr+48dPLD/3oWfY8WA8QOA/GdkZdlNVwwvvoYaJgdrRvQUZdVADknb/mPZ5N6Fnzt4YP+L2/7AZnjkCppHovHmDBTyTKn3bQMAgPzhu8uX2e+9zzT9VrQJSAuZ2n8s0/zqxc0HD+xns0NyC3lGPvfFL6FPAgAAAKmTEf9LJmC7cXAc95Wv3ZeiqyVDkAGGTdGAcwQAAAAYEAXpfwEAAJA14H8B6aVQ/S8AAAAAKHSgfwAAAAAg26Rn/kdfmOs8x3X3cuGk3hwAAAAFx/le7tTZSFs7hveSpkynG17BVVdx5WkyXKRB/+jq4U53oV8CAAAARUs4Ejnbw3X36sYM50akY9vYoeofPX0XlI+uHq7l/UgXth4GAIDiov0cd+BE5PRovGeWNCOGcbVX6EZURtq7dRVlXOWQN48dqhmlo1v5397Nrfi354+d5s6cOfPW22+Hw2F8wAd8wAd8KI4PXWe7IuEI2rTEPxxq61rxb8939SiGkM5zadDEhrT+Nhzh3u1QTt8bipw8y90y4Xz1MCzWBQCAomLtI8vnffHe2qnT0aylTOf5sjeOD7uG50zX6DiOmzhGN2hhpGH9be/FKEt7mlouH9kH5QMAAAAoSqqHhSdU9wXf66LK9Qw5zGJ61r9sWv/UJ9Y/qYQpKo+MHQ4tBAAAiofK8sjYEeErRxVbXF+QOqe7y8736YZXRH7wve9+9tdKqLKhr3ZNzzKaR3+0Li35AAAAACBvSePjPj36xzuHW9KSDwAAAADyljQ+7tOjf2xaj8DxAAAAQJGTxsc9/C8AAAAASAn4XwAAAACQbeB/AQAAAEC2gf8FAAAAANkG/hcAAAAAZJs0Pu7TvP8YAACAofO2XHZl9ZADfKWJRfevGnvZZaf70hHzNB0ceLdr5tXpeXiBgbJp/VNOa3pcMOlpwqhBpjctWQEAAKi5bNhHJo7IFzHob8iDQnzIvuNd+VKU0gP+FwAAAABkG6x/AQAAAEC2wfoXAAAAAGQb+F8AAAAAkG3gfwEAAABAtoH/BQAAwMDwer2GKD6fD6IDgwP+FwAAAAPAarWKotjQ0BAMBo1Go9vtTv1cURTNZjOkDeB/AQAAMAD8fr8sy/X19UajkeM4QRA8Hk/qp4dCIUgbEPC/AAAASBVRFC0WC8/zmvR+v99kMqmdMj6fz2w22+12g8FgMpkkSfL7/W63OxQKGQwG0mPoV4PBYLVaSTXx+/1Wq5UOchwXNw0oDuB/AQAAkCqyLOv1ek1iURTdbrfL5QoGg/X19V6vVxRFsnZYLJZgMKjX630+n81m83g8er0+GAzabDan0ynLclNTUzAY5Hme/Dhut9vhcASjcBwXNw0oDuB/AQAAMABkWdYkJqOIzWYjj4zFYiH9Q6/X00GLxSJJkvoUWZZFUfR4PGRKcblcoijKstzQ0BAIBMiCkigNGqs4gP8FAABAqgiC4Pf7ByquWH9NIoxGY11dnV6vxzTVogf+FwAAAKlC9gy73c6ma7jdbkEQAoEA6SWiKAYCAUEQEmVIBgye5wVBcLvd9NXr9QqCwNQUQRBCUZKkAYUO/C8AAABShef5+vp6juPMZjNNI7XZbIIguFwut9ttMBjsdrvL5Uqkf1gsFr1eTyfSwhmatSrLMn1lU01dLpfRaIybBhQHaXzc6yKRSJKfO86FO86FE/16vpc7eVY5fduByLVje68d2zusPDJ2eML0AAAAUqGrbHgexd/PM9bvef8TNRWlLoXscrq77Hyf7sjpiiOnK+ZO0XEcN36kbthgG2H8yPKqCh38LwAAAABICfhfAAAAAJBtsP4FAAAAANkG618AAAAAkG3gfwEAAABAtsH6FwAAKGZefedc/tTuzb2vX3vdP4y97LI8KIvCZcPLbp9YmQcFKSEysf4lPUuY3jnccu2M60qwSQAAIBPceV1V/sh19/oXp96wZOp1E/KgLCDHKP6XKTekpQzwvwAAAAAgJbD+BQAAAADZButfAAAAAJBtsP4FAAAAANkG/hcAAAAAZBv4XwAAAACQbeB/AQAAAEC2SePjPj37f0QNMr1pyQpkiLcONB88sB/SBfnP+fPnznR2XDbucrRVniCfll/b+ce/vfVWqQsik9w0ZdqNU6bmfznhfwED5uCB/W8daIbcQP7zwamTb/xpNxoKlA4F9H6Yxsd9euwfm9Y/9Yn1T6YlK5A5bpwy9XP3LISAQZ7TLL15/GgQfTV/2PfGa3fM/thU4y2lLoiM8cqLLxRKUTetf8ppTY8LButfAAAAAJAS8L8AAAAAINtg/QsAAAAAsg32HwMAAABAtoH/BQAAAADZBv4XAAAAAGQb7D9WeLz6zrnclvn9y2/JbTEiEe6u66tydXXwxomeU13hghDD6Z4JI2+/J+e3TOrcOqFy/IiBvcud7Ar/+URPboudOiNvv6e5Z8KxAmmRcSPKbptQGfen19t6PujOx7vgBDcua+Pz7VcPu6xKN+jT0+h/SY/+8c7hlmtnXJeWrIqVMSOrvjrjslxWTpiQW9Fuev1kbgtQ4vzDFSP/UV9dIDKYwHE350ExUuIvbV1H/945UP3jVFfYPJn/yMQROSv3gBA+WxjljPJ/oU6Oi6/bdfbq7s/1SBgfYUF2rvOXtq735a7LhvAmqPhfptyQlsLA/wIAAACAlMD6FwAAAABkG6x/AQAAAEC2wfoXAAAAAGQb+F8AAAAAkG3gfylFDBcxmUx+v5/jOHeUVETh8/kMBoPdbi91IYLBYrfbfT7fEMVnMBhEUfT7/WazGS2RInTzEiaTaeitMETMZjONP0kIhUIGgyEUCqXxutR5sl3bGNxuN7WF0+mUZXlwmVBdRFFMu5SyAPwvJUp9fX0wGHQ4HG63O3mvFUVRPcR7vV6Px1NfX1/qEgR5gM1ma2xsREukjiAIwSgul8vv9zudzhwWprGx0WazJU+j1+uDwaBer89WobKEz+cTRbGxsTEYDBqNxkAgUGQVTAXsP1bSOBwOn88nSVISIai1E/pcfGMBAKWGzWbT6/V2u12SJKPRiPbPMqFQSBAEGksdDkdJ1Z0B/wu4BGYSNJvNoVDI7/eTgcRgMDBbt91ud7vdsizb7XZKbLVaSTWx2+1Op9NsNtujWK1Ws9lsMBgoE6vVajAYcm71BfkGdRLm1yNjMuuKzETP3AfM/efz+egz9TfKx2q1kjWbdTmTyUQJ1PVmF6XeznGc3+83mUx0hHppopKwI3a7XY7CjhRQ96bnH3ki/H4/u5fphUSSJJIeq5TX62W+GzrL5/OZTCZKRmJ3Op2adqRRwmQySZJELUhjC/MdaKSn+UqZUIFjG8jn89FowzUAlO4AACAASURBVC5BKTUNFLfz5BaHw+H3+71er7oUmuGXRMQOMhd5orqw48ysFSsxr9dL+fh8vhR97pkD/peShvqfIAhMCB6Ph8yzer3e7/fbbDaPx0MmUGbrrq+v93g85LNsamoKBoM8z7OuLIpifRSO42RZps9k6a2vr3e5XF6vd9DOTlCUkBW6qalJkiS1IZpchDRGi6Lo9XrJb6jusQxJkurq6hobG0lvpu7N83wwGGxoaIh1MtJFGxsbeZ6vq6sTRdHtdrtcrmAwWF9f7/V61VME1CUhkyH1fFmW/VEkSaIbp7DeZen9WxRFn8/X0NBAsqU71Ol0Go1GVimfzxcIBCiNw+FgUxZkWXa5XE1NTaFQyGw2OxyOhoYGURRZO5LHx2g0Wq1WnuebmproucjKoJFeImEmaqBQKGSxWGjIYkqJpoH67TzZR6/X19fXi6JotVpZT9MMv3SQ6lJXV0eSSV4X6u00NSquxFwulxRFFEWPx5NbIWD9S4lCbwySJNXX1/M8z4RAL5TsvSSRcGRZpu5L57pcLpbeYrEwBw29YAmCwPO8zWbjed5isdDppd4AQIXX67VarSaTiWwJ9AM9eywWiyzLoVBIkiSLxUIDbtxnvMViMRqN1N9I2xBFkVLq9fpE8wycTqfL5TIajaIoWiwWSiYIgsViYU8FTUlEUZQkiV4rJUkKhUIOh0MQhH6nUuUhkiTxPE+1YOZJknYoFFI/nwKBgM1mI08NCYTkw25wEpoxil6vZ+1ItzwNBTQICIKgHgE00kskzEQNxBrXYrGQ/SO2gfrtPDlBEISGhgaLxWK326mycYdfNnJSSyWpC301Go0kikQSq6urczqdOVc+4H8pXUh9bmhoULt+JUnyer30vtLvvLABoVZxAFBDL9b0lhY7tShuz0muv9IplIadHvcU6u0pdnV1Sai0BI3jLpeLjIIF5H8JBAKyLJN+QCYEorGxUZblgd6zydMn/1UjvcEJM3kDMfLt5cfhcNhsNrLZJB9+Y2WYqC6DaL6cAP8L+JBQKESKNr3kseOxvZxeYmgWCBvHoWSAQUBjpSAIoigmsR/o9fpAIEBpUlm1wfO80WhkHpPYdZ6Um8vloq+CIAQCAUpG7oNEhnpBEPx+f9yiCoKQfDZ3/kDuf5fLRYIiaagrwvyzhMViIfs/navx26YFjfRivw66gQbaebKA1+slMZItWa/XJxp+NSSpC/m8mHASSYyMH/kgB/hfwIeQsY7mczFlgvwp6sl3BL1VkJFTluV8sOaBQoHNZDSbzbQQw2AweL3eJCosdU6aZJriCiyPx8OmTmueVTTJUZIkNgVVEASXy0Vz/ex2u8vlSvR4owLT9FWTyRQKhdi8P/LF5HMj0HROg8FANicqrSAIDoeDTScPBAJsTgybeOtwOGgOB32tq6tL1/uGRnqJhDmUBhpE58k0pEZQCY1Go8PhiDv8xpKkLmzCLwknrsTcbjf9xLTzHJLGx70uEokk+bnjXLjjXDjRr+d7uZNnldPrGt7+xIzrrh3bO6w8MnZ4wvSlzJ53uRzH3881m14/KVydHn0XDILTfZWFE3//Al6vNxQK1dXV5UVpEkDx92vHDWwvg5ZTvZMury6Y+PsFxf+FOseWx4+///vW3vs+ekUpC4fi7+tH6wZ64unusvN9uiOnK36/9x2nVYm/P36kbthgd/AYP7K8qkIH/wsAIB+hFTF5svABAEBg/zEAQHHCXOw0ITG9U6oBAEMkjf6X9Ogf7xxuuXbGdWnJCgBQyriioAsAkJ8o61+m3JCWosH/AgAAAICUwPoXAAAAAGQb+F8Kj96+8P+FOnNYbFk+Hd1fYWyuCtDbF06XvgsGwemuvtz2wNTp7u46/cEHEyZeXRClfa+zb2TFgFcTjKjQtX5w/lxPX2YKlWZOtB0fe9llw4cXxmqd0119YxOs9Koq55LcBdtf+q+75n8pgyXLA97r7Bs7bEjFSKP/JT3rb2/77DeeX/8k1t/mM6+8+ALHcZ+7Z2GpCwLkPc3Sm7+sf+YR70/RVHnCI65vftG+ZKrxluKu5tJF8zdufikPCpKPsPW3X7nv22/8+qk8Wn8L/wsAAABQ9CD+CwAAAACyTRof9+mZ/7Fp/VOfWP9kWrIaCmfPnGkNHsl5MfKTv7//Hsdxbx1oLlkJ1BiuHTlqVB4UJOMUeiu3Hjly9szZwq3F+CuuuPyKK/OgIACkn03rn3Ja07MEpqj2H2sNHnnqCa/+WsyEjQPpHyfffz/vSpYVQkfe+caDrhunTC2BunKP//B7BV3Tjnb55N/foxlLBcff33tv1sc/gYlWoFjB+peE6K+97jvf+2E+lCTfKPH5p4//8Ht5UIrsUdB3Ac0/LdAqFKjaBECKYP8xAAAAAGQb7D8GAAAAgGyD9S8AAAAAyDZpfNzD/wIAAACAlID/BQAAAADZBv4XAAAAAGSbwtt/rKsncrQj45GWjnZXdY+Z1HIq4zuRjBtRNn7EBdXtaHtfV2+yGDp5wqnycRzHZU44apkQ2Wn0FOkeM+lod1VZ5vtGXGrHxbnRMiqfzDX0pNHlIyp1Gb3Ksfa+rp5IhjJnHfVkV/hUV/qDVWX6RovblwDIGmncfyw98ee2HYhcO7Y3Sfy5UEekva988rihxd3LG9rkc9ePviC33xzp/dj1CYItlhJ7gp2fqLlkZGw51XuubFjRNPqgOXTq/LSxcW6KApXP+3KXfvQF/WP/6bKCK3/jIfnO66o4jjvcoZvIV+VBiQbA1oPt82/IgcARfw6w+HNHTlfMnaJLS/y57O0/NnncsI9MLIzwzf3SfvY8x13QP6qHlRVNvYbCnmCcqNbF1OhDItwd9+xClM9v5S72uRDL33hIpg+jKnUFV/g/Hz2bB6UAJQ32HwMAAABAtsH6FwAAAABkG6x/AQAAAEC2wf5jAAAAAMg2xe9/MRgMoihqDtrtdp/PN7gMzWaz3+9PR9EGfF2TySTLsvqg2+02GAyhUCj75clPRFG0Wq0Gg8FqtUqSlOUyhkKhRM3h9/vNZnN+Cs3n85lMplih2e12q9WqTmm4iMlkysldEEsoFHI6nQaDIVc35oBgpSUZJh+F3FFyOOYAkFHgf0kJn89HA4Ey6b2x0Waz0eic5UFBluVAIKD+WnCjkiiKmXsMBwIBu91usViCwWBDQ4PP54tVPTMB6wl6vT4YDOr1+tiL2Gy2xsbGTEtgEIii6PV66+rqgsGgy+ViHUyWZZKeRo2rr68PBoMOh8Ptdudc8Q2FQqQhNTU1NTY2yrI86PeKLCDLst1uD4VCjY2NwWCwrq7O5/N5vd5+r8zGHACKCfhfUiLuOJv9wddoNKoVDr/fH/dRl89kVGher9flcjkcDvpaV1cnCEIWhDGgSuWbsSoUCun1ehKUIAgul4uO+/1+QRAsFktcHc7hcPA8n30LkwafzycIQl1dHc/zVCrW+nkI3bwNDQ1025K0fT6fxqgJQIlQQutf6L2TjMzsGSBJEh1k9mR7FJZSlmW32+2PQqZ1cuiYzeZQKOR2u8k0yt5oZVk2mUwZesYIghAKhdjzwO/3q9+KqMwGg8Fut1N9DQYDOWgMBgPVjspPsDdFZhC22+0Gg4EOshPtdjuNjywB5cbkSeWRZZkcHwaDgV7pfD6f2WymU0wmkyRJfr+fXppZedKIJEmhUCj2NZFeOqlgrOljW5kqyGrNzF3U7mrfhCRJrKZUR9YTSOYag7nb7fZ6vT6fj8wkagmok6ltbNmEGfM0T0FRFEn/yGcbWyAQsFgssce9Xi/zcVD/pJairq65Neh+yQKiKGpKS8IXRTH2ZlEnY3dZil0UgIKgVPwvsiw7nU6bzUZGZnoI0ZPJ4XAEg0GPx+P1emkIliSprq6usbExFAr5/X6Px2OLojatNzY26vV6j8fT2NhosViYsToQCBiNxgyZJXiet1gsZCGn/0ajkf1KRt2mpiZJktRuGrKWk05ADoJgMFhfX0/19fl8kiTRuewUOtjU1BQMBjVeHhKg2+0OBAJUd8rZ6XQajcZgMNjY2EjaCak75A3R6/U+n89ms3k8HipD2u3Jsizr9Xp6D1bjdDplWaa68DzPRm1NK7ODTU1NdXV1fr9fkiR6MDQ0NASDQUEQSGKspiRYdU9gl7XZbNQE5DJjTx2NBFgyeorEfZRmgfr6etKZmEpK/dlms5FIY59qJMbsmJeSIMuy+hYgfD5fIBCgVnM4HNQB1L2RpSQ/HWnGWShtKBSK7Z96vV5TPLpZEmXSbxfNfD0ASA+l4n+hAZRss0IUOkjmDYPBQIMUDQQWi4V0CLI39Js5z/PsQZLohSxd2Gw2v99POoHmEe71eq1WK81RZe+yVGXSkEJR3G63yWSidz71Y4YlphcySZJoTiLZFeg4VY2kx4RJ1xJFkd7DzGYzXYvGViqkxWLJwptZbGNRBT0eD437LpdLFMUkrWyz2UjJo4cu1Z2sHT6fLxQK0RGPx5O8JOS2CIVCgUBAr9fHPiPZ5SgZqWu5epzr9fr6+np6pNGTmJwvJDRBENTqLL2jS5JUX18f+zTNPrGNHggEbDYbyZx6KYlXr9er7036yWg0ZqdzqlUNNeT/Sv1m6beLZqEiAKSFEt1/jI0CPM8HVWjsFqkPr2SWoOEgo/qH0WiktxxJktT6B73zuVyuuPMfWUXoxIaGBvayrh4Q1Z8pK0LzuE0kFnoJIzS6URYeVEajkef5QbzIxi0bO0ivpATNcEylLqTWBAIBUu+SXJp6Tqw2mX0EQXA4HPTmTSVnPia1VGn+aUNDQyKlKptodKPBkWKbDp3Y0vr9fp7nNZJMsTCJumjOGwWAFCkV/4vRaGRz491uN71e0G2f4oT5uHPE2EF6kyYXT6bHMnLJ0wuQuiQ8zwuCQO/Tic4NhUKCIOj1ejYOCoLg9/vpFZyJgh1MvVSp234zNNuO53lyM1EtyFEiSZIgCG63my7q9XrZa30qGI1GehKrq8m8D8krRc0U6/LXJKZk9MqeXoGkCE1JobSiKOr1ejLzkEuO4Hk+OyuJBorL5VKX3xeFREr3OHWGuIYlugVEUQwEAtmxPGmm2vj9fq/XSzN5B51nbBcFoFAoFf8Lz/M0w4NMx6R58DxP88/VsybjYrPZJEnSbO1ATzs289RisZAHNxPlV0MqjuZxRT4UqkWS4YwcEOo9UWj4o7lv7D2McmMzc1NRRFwulyzLbB5comQWi4XKmQmPOy1/oAY1mUxkhCDjDfmSZFnu13WihkwCbPpqIBDgeb6uro7ZBqgWmp7AairLskZNjJVAomRZg1Rzqg65lmLnMJGfKCfFS47RaKyvr6d7k3q1zWZzOBxGo5FcEn6/n62O0UCNaLfbXS5XdvQPnudpqg31RlI+hrhgJ7aLpq+8AGSWND7usxd//wp+RB5Gm6TdJmh8SZ3GQ/JVF6spHg9/7fbxOaxCIBBwu91NTU05LAPHcev3vB8bf3/S5dXFGv/WZDKluFT4L21dI+LFvy1Q+fz24CkWf7+rbHjWyi+Kot1up4nDQ8nnafEExd9/t7vMPDn3U2EGxKbXTwpXp+elcUAg/j7IRPz9ko7/QhNCc7V+IV2Q7bqgq1Bw+Hw+cpyVuiAAACUG9h9LA36/32QyCYJQiHsUBgIBtiOIXq9n20+BLEBLXuvq6iBsAECpkcbH/WCtJ5cSnRDbW1itQBs55EFBBoNmRwSQTbBaIScIgoA+D0DOQfwXAAAAAGQb+F8AAAAAkG0K0v9y6NT5tFwrHzjTE+GGXyhH5/nwX9q6iqZq6aWYGn3QHDp1ftrY+CcXunxiy3/y/XeVye1XXJWjEg2AMz2Rgrtz3+3s5bhheVAQULqk0f+SHv3jncMt1864LkmC6IK9MBdvFWIaeetA8ysvvvCd7/0wo1fhOO760R9+/sy1FZmuV1p45cUXOI773D0LM5S/ZvEtx3G14yqy0Ogp8vgPv/e5exbeOGVq9i+dSPnIK/mkDlt8G62atvx//v1vMtrNhg4tvo3exZGCE/78G6B8gByj+F+m3JCWMsD/AgAAAICUKNH4LwAAAADIIVj/AgAAAIBsg/UvAAAAAMg2+bv+JRzhevp0KZyREXrDXCSnBchnwmFFLCUrnEhE6R7oG5mmxLtZsRKJcH19ulJoVnTdRPT0cb1h3enObueK7/b0cdQrhkh69I/QOy1jb54c1QB0H3TnrP06zpf1hLkPunMQnyn/6epV2qVkhdMTVroH+kamKfFuVqz0hnUd53Wl0KzouonoPF/WG+ZOnS1XHrXRdWNXVA81zyHJelgFV6ZThpvZt9Zues5/5HRFbxjKIwAAAFBsyN1lR4+31a39kRI6X8eVD/lpP1Rdb3jUgPIPV+j+ecmXv3Lft8VQ1c93tJoXfucPR4Zn/8ObJ4ad+OBcrq6e5x9+/uL/HjldUbJCkLvLtu19Dz0h0x+OnK548x0Z0iiyDydOn1v+w/VFX1OO49DciT587bs/ee5Xvzdcez2tfxlWngblShdJ6sPpOBfuOBdOkiAc4f5+husLK5m828G1dw/ZIzQEjrU0/d+25+9eviaHZchb/m/bLziO+8e5Xy7N6r+8buU/zv3KNbWmPChLMVPi3axY8Xv/Rfj81/U33Vrc1fz35Z/513W/yYOC5CPnehV3x/neyO43W7405wZ+OHdFtW7YYGdwjB9ZXlWhG+r8jzIdN34k90GXrqcvctVo7qrRufS/6N7X7a/U1V4BH1AcDo1UjpWscEZW6iaN1f0D+kaGKfFuVqyMqOQmjS2JoRVdNxHt3VxvH3f0tLL+Zdncp8rSMU8mDfNPy8u4y0dx3b26cz1cXzJbScapLFOcUlVD90oVI+VlilhKVjg6ndI90DcyTYl3s2KlTLl9dKXQrOi6iRhWzum4SGW5sty1Ih3Ol7Stf6GJIMPTltkgGTOCqyznxo3KcTHykxGVSrFKVjiV5Ur3QN/INCXezYqVinJu9PCSaFZ03SSc61N6Qt7FfwEAAABA0ZN38V8AAAAAUPTkXfwXAAAAABQ9eRf/BQAAAABFD/wvAAAAAMg28L8AAAAAINvA/wIAAACAbAP/CwAAAACyDfwvAAAAAMg28L8AAAAAINvA/wIAAACAbAP/CwAAAACyTRr9L2kLGdfTx53rVeLf5jAEbnuXUoxTZ3JWgHymq0cpXMkKp6dP6R7oG5mmxLtZsdLbx3V0l0SzousmQu5WRtHzvYr/5SufeoqsF5XxAuEqwcbLlXi5w/rTL9Kgf4Qj3Omz3Lm+yNCzGiI9YS4SyYuS5CF94Ug0gGGJCicSUboH+kamKfFuVqyEldsnUgrNiq6biPN9ihraF1b8Lz19HMkqkbWhu1f5X1Wu40dw5Ym9LEPVP8IR7tRZrifaZu3dio58tidn7XfsdORsT6TlfXSgOJw8qxwrWeGc7YkcPR2JoG9kmBLvZsVKVw939HSkrASaFV03Eed6lcd9+znl56OyIqWqM1yZLk7qynLduJHcmOGKgnLyrO7yUfGTpWH+x9nzF5QP6Xhk1+HIK+LbX/ra8r+9z/3vn1qy/+GNvx7961t/y9XV8/zDqTPc4aMnS1YIH7R3Pfr4OvSETH84fPTkS69sgzSK7MOBt/527HTx15TjODR3og+tH3B7mo74/mPDvjf+tKfpyLddjxz+e/zE9yz+xgPe5/90JNKj2EsiHd0J9QddJJJM3es4F+44l2xCx7sdXDiimBwe//dffOs+e+3l4bEjcqY/vtUs/c+W+pU/8OaqAPnM/2zxcxz3TwtspVn9Nd93/dMC+41TjXlQlmKmxLtZsfLDlf96z1eWTjHNKO5qfv2L1p/9siEPClLY7Hj90AR97WNP+Zcv+7LxasX0cdVoncYEMn5keVWFbkj+l54+RfngOO7IKe4Twv+7vaavZCUOAAAAgDm3T+a48Lfuswc/4IxXczR/Oe5c1CHpH8x00tvHzZquXLK8jBs3Mmf2j3dHRCrLuSuq4cCLw6hhilhKVjiV5dzYERH0jUxT4t2sWInePiXRrOi6Q+d0l66nTxkK3jn8N27KDUnyS8/623cOt0y5arKSXRlXlbYlvQOmslyZ55LDAuQzNAm5ZIVTFl0Shr6RaUq8mxUrupK5fdB1hw5ztWxa/5TTmmyz1PTsP5bGDVkBAAAAUOj0u1NqevSPNG7ICgAAAIBCp9+dUtOjf6RxQ1YAAAAAFDr9OkbgfwEAAABAmoH/BQAAAADZBv4XAAAAAGQb+F8AAAAAkG3gfwEAAABAtoH/BQAAAADZBv4XAAAAAGQb+F8AAAAAkG3gfwEAAABAtoH/BQAAAADZBv4XAAAAAGQb+F8AAAAAkG3gfwEAAABAtunXMVKRlgJFLxNG6wIAknDqZ3cPu6wKEopw5aPvqVcfkV9+sLzvaO5K1A+rP9ZbdsjbeViXn8U7f+rsuGX/k+mrfLB+duX4qzN9lfynr3wSf/cTqRRTcYxMuSFJgvToH+8cbply1eQkCXqan6vs2ceVjU7L5RJRfbxrMn+Sa/peRq+SXrqDb0ZqV464yZwo166Djdzf/n2EPlkrpsKCKT1KqoISTnK6Qm9z//CviUQnv/xNfvIY9vWHC/sqwy9wTb/Mh5LnllN79oxb9mpOilB5+TUT5n83f0SRKzre3KS5so7rmbBgTelIIL2c2JKNTnXZHebqW/4lm/XKT46/lJLyQY4RpzWZbyQ9+sem9U9Z7vhpkgQ6LlxtvJurvC4tl0uE6RbOZMnoFTLBf3T1l+mI64XqaZ8ruIplnIpXkohOx0Wqb/k6+1pd+NVNF52H/l4cFQEA5DNY/wIAAACAbIP1LwAAAADINlj/AgAAAIBsA/8LAAAAALJNMftf7Itdvg1bNAd9G7bYF7sGl6H74bXuh9emo2g5INTaZqi9K7bu5jlLzHOWFGilsoxvwxbznCWG2rucy1fLcmeWr+7fvDVRSxV0z0yduHf0gBB37zPU3pVcmAWHfbHLUHsX/Vnvvt+/eWsOa0DjTKi1LXmytMuftWxBE2ptY6056K7OnnH2xa48Hxbgf+kHcfc+dp94Hl3heXQFNXCBDvfi7n3qoSGwbWe/I0W+YV/syskI612z0b95q2PZgmDLdtfKr9mXDFKLHRCy3Gm6bT61kW3RvMYdz8Q9uwh6ZpZJIsxCxLVyabBle7Blu2XubPfDa4eopQ0Ffc3EYMt2fc3E5HkUmfzThfsh5ealphR37S24wXmgwP/SD6FQnB5QuN3COK1W/fD2b97a70iRb4RaT2S/RKHWNt+GLXXrVtkWzaNBtuHlp7NwXbm9Y0CGlqIfsEByHMsWuFYu9W14AXIqREKtJyxzZ1PB65/1FtzgPFBKYv1LqLXNevf9htq7TLfNF3ftpYOy3EkHDbV3eddsZNZ1Mn+Zbpsv7W/xb97qfngtWRT9m7eS+df98Fr/5q3+zVvJzKg2Nubq1Tx1LHNn+1/YSo+0UGub1NximXthey6qEf2Ju/fFFQiZ+imNec4SqrhavPbFLjL9xRWv6bb5dNB69/2y3OlcvlrtEmIFsN59P13LUHsXuxy91tNF3Q+vzbLxPLCt0Tit1jitVnNc2t/CqskqEltsMg6zg6yTsCP2xS5qFP/mrabb5rNkVE3znCX0Umtf7NJ0OfOcJYFtO4ugZw4Ococx4SeSM/U0xaa9/sKDWW2jti92UT7ULZnVk46Y5yzRmBPYReku0LQaJU69xdOOZa5Zljs1d2vcDibu3ifLnczgb737fuow9sUuqjhVgd3gVLXkNzLzg0j7W1jO4u59mq9qP7h3zUY6rozPiUee2CElbssWNI5lC7xPbFTfqnQjq7tWXOHEfcbR+zMdN89ZQrKN2+LMbZflgaIk/C/uh9byY6qDLdsbXn6avT07lz9mnFYbbNneuOMZ/wtbqW1CrW2WubPJfujbsMW2aJ7n0RVkUaQXX7J12xbNsy2aR8mEmdMD2xpVj/PZOaxpvxin1fJjRge27aSRyDJ3Ns9f2HOWahR1Lixlt7dGIFR9SqavmUA9NXXxynKna+XSpjdeCrW2mT+52LFsQcPLT4u79wW27aQhqeHlp4Mt24WZ01kBpP0tTW+8VLdulX/zVml/S+OOZ/Q1Ez2Prsi+8TZW+VDu5CUuVs1Q6wn2oNIUm50SbNlOQwyNI5Qs2LJdbu/0v6CkdD+81vXgBVs6s1E37niG3CtkemFdTnl+tHewLlfQPXNwNO54JtiyvemNl6TmFurVRKycKWXci0jNLXXrVkVbsI20c+fyx0iMrpVLY01KlFXjjmd4vrpu3Spx9z7WavXPer1rNlJvT1QSdYtnQib00iy3d/bbwYSZ053LH5PbOykNP6aa7P/Ut+uf9dQ/6/Vv3upcvrr+GS8NC6TEJLmRWTG8azbSrcHuaPVXlsy3YUtgWyPd+I5lC5XyXHw70ow8sUNKvy1bcNgWzXMsW+h9YiO9aTB/FutaiYQTdxCmvk0jtjBrOjVu3BZXRqqoSI3TatmTLguUhP9F3L3PtXIptSUTrrh7H70pmucskeVO8rOwBJa5s9WPjSTYFs2jx3BgW2P0cZ7vG2kqBY4Osv4XttoWftjVaBildwv2ZhYrEHpxufDy1H7hZdFx38IUxSvMnM7z1cLMGZa5s8mioK+ZSK9r6tcsdgvZFs7j+WoSbIotkiFiPXHi7r301Gd1Z+Nv3GI7li0gSSoCaW0Td+2V9rfQyyhVX9y9T5g5vd/7XzFiXehyO9UtGKehC6pnDgLvmo3Wu+833TZfljtZp42Vs23RPHoqU0fVQF0x2jlnkK4my52UiTBzuvphqca5fLXrwaXGabXirr2WubOp1YSZ0y1zZ7MX0H5bPBMyof6mr5nQbweT5U5x9z7Poyuob7hWLiWLiFKRWdPZ3XqxM5vJIZj8RmbFqFv3UKj1BHuR0HxlKH140TxS7klcdFvFjjyxQ0q/LVuIOJYt/uXAdQAAHZtJREFUaHrjJZ4fbV/sJlXD/fBaMi2r5R8rnNhnHOvblK3St/e3xG1xfc1ERUtes5EyyRolt/+YLHewz6R0s3dNdTJ+TKqDtTK4tHdI+1t8G14oiFdM28J5odY27xMbjVMvcSjQm0ewZTt71VZDApH2t3jXbBRmzWASoxGHiStV8cZ7FpJGT3+x5g1+TGZjAyVHecxcOnU3RWKLra47mzZIYpflDmaOSgJ1OXrdTKKsFFzPHCj06kwyjPWUx+1j6v4ZC50SbYUPzyUlW4NyF6SgKcaWRNPimRBLYNtO0gYG3cHUJL/vkii1ZByyLZpHPgLN14EU4MNLJBlSkrdswVG3bhWZqL1rNkn7WxpefjquxTfucyquKGigzrcJJSXhfzFOq2VTEJjNU23kTw6pnBrUmr5t4Tzn8tX0TpDVig0Kei8n5ws7n14f6RVHbUTVEGptozeh6MvcPsptiOIljNNqyQuTSuK4j4SMQu+1zuWrqYQ07UOYOYNc7CQZjUj7RZg1w795q1qnEWbNCGzbGet/1UwUoBZ0P7TWOLU2dkAp3J45UEhREGZOT64a0pxrevtPZWGIMHOGLHdeMGs/vDb2YUkdlb0pqluNlEJh1oz4Oce0eNqheUKk2fTbwUh67ofXUp8hpSq9djJ9zUR9zUR2X2u+MmMes62S/ONLL2ZIGWjL5j/qESbU2qbXTwy1tgkzFVsU+VITEXcQVjrkrgu3BmvcuC1O8+ttC+cNaNAeOiXhf/E8uiLUeoJmgbHO7Vq5VG7vZNNwEp1rmTtbXzNRPYOMhnVpfwub32eZO5scclmpTRogg6r6BYLnq6P+3U3J19ArduaF86Kzn9xsnBqKeBnCzOmOZQvYxKgkOhDZCbO/eUPdulXGabVUQvsSF8mwbt1D4q59ZBM2TqslA3KK2BbO09dMoFl+tMhWmDndtXIpmzOoDEBRa6r17vs1q2oTdblC75n9wuYqmucsIds7eQyTPDUdyxbyfDVN2YudxBMLz1d7Hl1BF5L2t2hOkeVOUkrYrEB1q9kXu1wrlybS9mJbPO1iCYXaGl5+msqcSgfzPKZoKuSjkds76WtaYPeyMqVg4TzNV1XrLDBOqyXHq3/z1rp1DyVqytghZaAtm/8Yp9W6H1pLFaSORC4Sxd+tmlUaS9xBmDozyZY1bmyL0wxix7IFUQ9yY5KxN+306xjRRSKRJD93nAt3nAsn+vV8L3fyrHJ6XcPbljsmT7kqXFXBXVEdJ8Pe5mfG3nR9puPfZghlavcSV+Pvns2Ei73zzf/oGvaZ5PH3R4T/kifxb71rNoZaT5DxMOd07n+lq+wjiUTX/vKKq+c/mA/lzByD65knXvJU312XoUL94jk/x3Ff/qot7q8dL98/Mc/i71vvvt8yd/aANMuh0/HmJp3p++psSqG7Zo4TW75bfY9/6NnP/fRnt/3vrxP+3LQK8fcp/v6Yu5PtQvR+p+5cL3fg3bL5S775xq8V38j4kbphl8baHz+yvKpCl6X4+wWNb8OWYp3fNyBo+YDrwazOYAJJyMOeeabzzKFDh0kLieXjfe155aAObNsp7W/JE30a5AOJuq6iVd+CFhoY/TpG0qN/RC+T0ExSuCjLz6KG9/pHvcVXuxTxrtnInK+ulUuzuXwLJAI9cyiwHWhosXfRbwMFQE5Q/C9Tbkhy5fToH+8cbply1eTia2JanJ0HBcklrpVLs7xqC/RL3vbMUdWjTB8xJva/7M56ieKQnc1tQSGSqOtyUf8LmnRAbFr/lNOabG1KAa9/0UwaHSgpBlIqslhWBG2xN5QcUo+IZp6zpGi25hx6wKcUpZF65wSpQHF21JP/pf0tzuWrSyQ0I81wHEp3Ks37PY0M8WmV+jNoiLEq03tfwP+SkORvkLLcaf7k4oaXn6YVCnA6aEi+t0F0h7E2SoMwVGqSS8O+2EVbXcHwll7E3Xuj+wI3kiVP3L1PWVOT8iZAAPd7bkn+DFL2lnxoLUl+KLvOpP2+6Nf/Umz7j6WLgQYGA2rw4j44chJ7rxQIbGukXThp9wVh5vSGl58uyk3bcgLu99wSN4rqIEj7fVGo+4/5N29lsYjIpsemQFIsLvosNV/YfpgF2qHgSSxakjp+mG/DFvI7UEwjFkhJHe/n4u7gbbGBwRKF9okb4Cq3qIVAlny2I5D6s7rKsQGlYmNZ0U4MlJ61AoWwUrdCbJi02NySB/HKCbTxAyselZ8KwrpK3IBPmr6q3q1BI7cLC/1379NUnHqXOvae+oophu8CiYhuQ76XtlrP5uYHWSPF+923YQt1JOfy1bEdPlf3e+ywU3AM7mkVK3/N08q+2EWuEMpEHU/xw1h00U3rY6Ooph47M6MU6v5j7ofXOpYtoI14kyRTohP97tmmN16iu4vMR42/e5bC+dC+KywqEi3xj+7XZNZky+L90MZEzIqoDgyWKLRPbICr9IpioGiEkOhsTZWVLdsvjSAVG8uKMmeSTNQKmjBplCb1IF65gsJ3qbtKXGIDPmn6Km1QyHaSVtcxdt8qCiglNSuhmOPG3ks9fBdIhLh7r75monFarWXu7OLTP1K83wnqb+LuvYrGcGmHz9X9nihwXQExuKeVRv5xn1bi7r0UJvCSfC4OQbRLctwoqoOInZkJCjX+S8PLTwe2NfY7sNImlRRCSdylxF7yPLrC/fDaC3vcNrcwryRDXzMx1r7EgvqQ6522HteQJJiTJsBVekUxUDRCSERslTURpOIGS4sbDk3TCnEvmHoQr1zJzbFsAW1dnLwMmoBPodY2TV8Vd+11LFuo2a4xru+WKk7PRak5/h2UevgukAiKz0ebRUY3ui4qFSTF+z22v2k6fK7u90SB6wqIwT2tNPKP+7Si7bk1+cQOQXHkP8DYmRmiUP0vxmm1detW0e7CstzZb7wouf1CGtuieUrI7F17nctXawJNpYjcPpiziDzZCUotBHV8qUS+IaqyJoLUIGJZsVYYBPkgOtfKpZ5HVziXr/Zt2HJJl0sc8IkfM1rTVwcRvEbp4YOd84VJlMmR5c7Atp3MhyXtb0keaKMQGfD9frG/qTt8ru73QQeuyx8G/bSKkf/AhMmGoMFJIgshPws7/guZEyhMBqlvvg1b1H2UDsbGBotONNurjh+WHApxFBshSX0DZyGYU3ohIZBiQS8fzuWPsSskqjKLIJUoWFoscVtBM/alHsQr55DviV47Att2UugmVqjYgE8XKnixr6oDbvUnt8ZYaWgGrNTDd4FEnZNM0yzwsrh7b1FOLU9+vyfqb6zD5/Z+jw1cV3AM+ml1Qf4pP63iDkGaKKpDjJ2ZLgrV/8LmeLpWLqW4X7LcSXHLNJZtmgmor5ngWLaA5jfR5B3Xg0vV8cOST2/k+eqLM61eoAhJcQODZS6YUxrRCEHRsh9cSlPP9PoPTXmxVdZEkIqNZZWkjOpWiA2TRvdYikG8cgWbnRdqPUFBs2yL5tH8L3WXiw34FNtXWcCt5MvoxV17NdKIjb2XevguEF/Iu/dR2GdCmQgytZas08VBivd7bH/TdPhc3e+JAtcVEIN7WmnkP6CnlWYIio2iOsTYmemiX8dIeuLP3fbZb7z0zE8LNP4cLXbI1bL1woo/F4uh9i6agJb9Sxdu/Dlx9z77YhdNOM3+1RF/LucUbvy5HN7vSSid+HP2xS69fuJQNvkYOqnHnzvwbtncKbok8eeKIf4+AAAAAPKKQvW/AAAAAKBw6df/gvj7ios9J76x4gDbhA8CYeZ0yA0UIui3uaXfLV7yisJe/wIAAACAQgT+FwAAAABkG/hfAAD5QtmIER1vbkJz9J7trrz0SMX46yCZQaMbdWUWrnLu/eMRtFG0r6aYMl/i7+uu+n/H/+c/0nKt4mOkWZ+kTpWX69sbX2x/64lSF1M8Rpo/m+inqpstx1+C0OIQ4Ubm6tKjPrMmV5fOKypjCjNy9jdLWiJDY5QpG1ep+uTPs3GZvCf14aPf+Pvp0T/eOdwy5arJSRKUX35z8hXDIBEVlxsgukFQddOdVTfdWXDFBgCA4mDT+qec1mQumDyN/wIAAACAwiVf/C8AANAT3BnpDJW8GDjdyCsrr4NxrsA43/yLUhdBlPIrby+/4sZUUuaL/wUAALr/7J/4ufhbs5cUHfu3cRz0jwJjWM/r1cb5pS4Fjjv+P3UpTgno1/+C9S8AgGyhq8jPIFDZRje8tOpbHJRVo/cOCOw/BgAAAIBsg/3HAAAAAJBt+l2YgvUvAAAAAEgz8L8AAAAAINvA/wIAAACAbAP/CwCgMLAvdvk2bBlKUcXd+wy1d3Ec59+81TxnCdod5BWh1jb7Ypeh9i5D7V2D7uq+DVvsi110v7gfzuutseF/AQCUHLZF8xp3PIN2B3mF+yFFXQi2bA+2bBd37Q21thV3+8D/AgAAAOSeUOsJy9zZVIz6Z736monF3SjwvwAAChXznCVkrCaDM7lX3A+vpYP+zVupXs7lqy/YtNe/QEfUNmr7YhflY737flnupHzYEfOcJRpLOLuoofYucuL4N2813TZfbTZPVBJ2xL7YRdcCgOFYtsD7xEbWW8gjwzobdS3fhi3mOUvITWO6bb60v4WSWe++n46Iu/Z+eHrownHznCXi7n0cx8lyJ3PxWO++n0ws1rvvp4vaF7vUV8808L8AAAqVxh3PBFu2N73xktTcEti2k9Ui2LKdhnIar6X9LZQybjWl5pa6dasadzwTam3zv7BVljudyx+zLZoXbNnuWrk01gZOWTXueIbnq+vWrRJ373M/vNb14NJgy/b6Z73eNRtpoE9UkqY3Xgq2bJfbO/0vZG+gBwWBbdE8x7KF3ic22he7qOPpayaSO4a6FumsodY2y9zZwZbt+pqJpJS4H1rLj6kOtmxvePnpUOsJVlepucXz6Ipgy3Zh1nRy7jiXPya3d1In5MdU08G6dav8L2wVd+8zTqu1LZqXNVHB/wIAKFS8azZa777fdNt8We5k5gTHsgUcx1nmzpblzlBrm7hrr23RPDJlO+5bGFtTy9zZxmm1+pqJwswZodY2qblFljspE2HmdGHm9LjCcS5f7XpwqXFarbhrr2XubBq1hZnTLXNnsxfQ2JJI+1vIUiLtbyl67z4YBI5lC5reeInnR9sXu0nVcD+81nTbfDLXye0dpJRQf7PMnU32D3H3PtfKpeqfCOrblK3St/e3iLv3eR5dwfPVHMe5Vi4Vd++T5U59zURFS16zkTLJGv06RhD/BQCQj/g2bAlsa/Q8tkKYOT12MQuNsBpkuSNJRegUWe5Qnyu3x/GSeNdsFGZOT/FNUZ2ba+VSUkoASELdulXmOUv8mxWbRKi1reHlp8nxp+1aY1Lt5KSd59uEEvhfAAAFCSkKwszpNEYnqoJxWq1/81bF/LB7XyprGoWZM2S584JZ++G19H6pJrBtJ3vdVNLPmhHYtpO85uLufYFtO4VZM+LnPGsGlQT9DcTFuXw1Oe/IPKbXTwy1tgkzp+trJga2NSaRmXFarXfNBR+f2q8n7rpwa5DGTPeL++G1pI6wg6HWNt+GLbaF8yiTrAH/CwCgYPCu2cgmfpJXxVB7l3fNxrjWDsKxbCHPV9OUPbJFJ4fnqz2PrqALSftbNKfIcicpJWxWoDBzumvlUppYal/scq1cmshlY1s4T18zgaavmm6bD0UEaDBOq3U/tJZmhlJHIheJofYu9azSWDyPrgi1nqCZzsLMD9Vfnq+m+adye6fnsRVKyuh/cgLSweiEp9WOZQtsi+YFtjWq51Flmn79L7pIJJLk545z4Y5z4US/nu/lTp5VTr/ts9946ZmfTrkqXFXBXVGdLEMAQBHzi+f8HMd9+au2+OPJy/dPnP/dvKq99e77LXNnZ9lp0vHmJp3p+9m8IkiFuZ/+7Lb//XXChE2rqm/5Fwjy+EtPjLk72b5n73fqzvVyB94tO/Bu2dwpOo7jxo/UDbt0rsf4keVVFbr0zP+I+l8SqikAgNLh3Xffa/qLFLe6E7vP5ZUYAtt2SvuV1TF5UBaQFyTquopRQYcmGhiKY2TKDUlOSY/+8c7hlilXTU5/8QEABcVVE65q+otEVpBY7quV86Ey1rvvp2kf+pqJnkdXFP02UCBFjKZpiboux3GPL07PdIXSYdP6p5zWZC4YrH8BAKSNT9/5yU/f+clEuXW8fH8+iJqWGwCg4fEfe5KJpAl2soGB9S8AgFLHvthlvfsS1ce3YQvbIzJ2CQwA6UW9Se4gSD2eovvhtYMOSifu3kcTV023zU/LNqlY/wIAKGlkuZMtemRykPa3NLz8NO0RmeVFiQAMlOTxFCmeAH32PLrC8+iKwQlY3LWX9vmlTVqHHkAA8V8AACWN/4WtF/YtVe2bXrduFa28tcydrd7QGoCCIxRKz0pv18qlF/ddNSs7Drcn280vFeB/AQCUNOKuvcKsGZa55rgmZalZuwUIAAPCv3krbcJhqL2LtjFl++DZF7vYZ6n5wt78FBaOdppRR56T9rewfCiAonP5atrYRhNP8cNYdLv3+TdvdT+8luLY+TdvZVdU50bnkhuIXTSJm0bctY/nq4c+Lxv+FwBA6ULOl+jOYBN5vloz1cO/eWtg207Xyq+hh4BB4354rWPZAgojlyQPJUri755teuMlto2ptL+FznIsW0C7hBmn1bIjUcfK3vpnPfXPei/J52LMOcvc2e6H1toWzaM1XMGW7SxigBIFd4mLcotGXjzxoRoUDZGoRKTbvDXuzCdpf4tvw5ZBO3HUwP8CAChdyPlC26cKM6erN3+kZ0D9M16svwVDoeHlpwPbGvvd+9+2cB7PV/N8tW3hPHHXPseyBbRXOu2TKzUrO7JrnvqWubNjO6cm5lzcbXbF3XtpLggLWcd6PhXDMnd2rDpOU0nsS1yOZQssc2cPvVP06xhJw/rb8r727as/cuP7D446P6lr4he46muGnicAAAwd2mGMDOO0XzUFdvGu2UhTUCFjMESM02rr1q0KbNtpnrOk4eWn+41uKLd3svi0bAdefc2EJEEG4kLzQ/kxowdX/NgTA9t2etdsanj56XRp5P3uPzZU+8eIruab37rr0+Ef6LtfHH9i7aR9H6s49tIQ8wQAgKFDEckbdzxDNu3oapfRFJHct2FL3bqHIGOQLoSZM8gaEQ0mt5MMbGoDAx0Mtbb5N29VWxeEmdOl/S0U1SWVpbOxMedY4H5Vnh/mFnvFRPg2bHGt/FoazYGZ9b8MO9t8w5F7hkVaucoIVxGh/1VvfafiOFQQAECOCWxrNE6rVY+ntkXzxF17peYWFqOL/tRLYwAYEGwjGdfKpcZptTSZw1B7V2DbTs3UZgqsqK+Z4Fi2gO1AE2o94Vi2gOer69Y9JO7aRweTbL8RG3OO3DTqs9S5mecsoVL1Wydpf4tz+Wp2U6QSTTo5/fpfBh9/rvJM87iD88vD7cq+cJEvBi///m1Vv7my7YdlvR1cmDt345reifOHWHoAQDGRh/HncgLizxUkeRB/zr7YpddPTMvk0EGTevy5wGuHnNYbksSfG6T9o/Js8/iW+eW6dq4i0lc1eu3fnD26MfJl95y54h5dRYSr4KpaVlacgBUEAAAAKEUy4n8p62sf986SMp3MfC7//dyTF7NTDuoqI7qKSNXfVlaceDF5Vs3Nzf9879KpN06hv6OtrXGTtbe3T71xyh23f3SITbjxZ/859cYpG3/2nymmp7I1NzcP8boAAABASZH+9S9lfe3jD32hPHxUUT7KFAdOuU4++GTLO+HfXC43V5/5JVcZDcWv43R9XNXfvsNxXO+Ee+Jm1d7e/s9LlAnA23+7fVJNzZNPPCm3t0/KdfM8+cSTe3a/tuW/f5nrggAAAAAfotkLJM9Jc/x9Uj4qe/Yr55WR/sFxXOSq8v1XRb7GdeqU4xGO64se13E6naKCRCrG9F1+Z2xur+1+TTFsTJ06qaaG47hvP/jtTAtz6df/eenX/zlJgvb2dsVGMnUqff3PnyMwBAAAADBg+o2/PzD/y+h3n1CUj/Loapdy9sdd/Itc+FoRYV915ZGqw4/Gze2OmXeMGTOmubn52yu+xXwc5CJ58oknNZ8J5qz55QvK1Nztv9l+16fuoiPkVVE7dL694lvbf7N96o1TFnzhi3fc/tFvr/jWk088SSmZQ0edYXt7O7l4mpubye2y4AtfZP6X/9/e/cU2VcVxAP+d23YbjJ6KY8M/VGIMMbZ7RSmJiQ+a28VEE7Srj5oNHnxBbvYKFngwxuYSXlmX+MoKiyExrurzLpH4xIqJEYPeajJhhl0mBbreY849XTO6/hlrUaDfT5rmtLk9vbe7yX455/c7R52M+pT6rmrn6hxGDyTU/FH1SMzdAABAd+rw/Evg3uVKhKEJEoJ+v0PumvIZsfosiEI9FOyRx/hIWyloy1fcbZGa3jjnqZPHU0c/zc3mcrO5RHI0dSLV5Nsdx9Hjunn6VOJAwkyb+kjcTJsF21bTN+oA47DhLC1Nz2TVGEZuVi6Ia9t2diarpniad2hduhjbuy8ajdbMv5hpc2oyY0wYYwfHU8dSZtrknPNQyCu8drIz2cyZzNRkRsZDcd1Mm7vC4dz3zdbiBehC2o7In+fT+Mv7B17c+gicBjwQ5+qycxV3L/W+8vYGj+zw/IucVfGtzrwIoSZZKu+L1Wf1UvPGQgST72gk/Lxuf3pc1+P61GQmcyaTPTsdDjdL/+CcJ5KyiDkajeRmc9acFeK8QGQcNvQRfezgeO6b2YJtJ5Kj1QkUJbY/pgKUlh3G9sfqfrWKY/S4rnrLnp225ix9JK4+yzmPDstvzM/nE8lRznnBtsc/GtPjuuofAIio//WP8TPAY6p50Sms1+H5lyIfIeYFH5o3ylETglQfRFQSlShEE+XQq6KvWWAxdnB8/NC4t6Css5HTcBxHRQ/TM1mVz2GmTePwkQe6lrodbrqHKs551jur/Hw+dSy18VobAACAJ0aH99//Z/uhUl+0EoL0MXrKR9u0+x5BjbhGQR9t1dQwifAH7+6uv9JOPi//Q6u2NWd5q7bxiDd0cdF7mZ+/L3nCcRxrzirYdn4+vyscVmMVxoRxxEtclZMpI3HOuRoF2cjlrO+Qe+x1H1cjH2oURJ2qGvyoa1c4bEwYKqICAADoQi03xn/g+tvF574a+OvdQHlevhgK1D/IZbIEpiyDj+LuaXdLbeaHEg6HrTkr+nJEDRuo7Ar1z16ldtbMhsh8kWOpgm3LTI7TMpMjtnefGrqI7Y+lTqQ455kvp44fTelv6pXJncZRQt0OiSiRHFUJpGtTQFRtjpk2VeaHMWGok1zfp8paVW09rjcvtwEAAHgitZx/2cz665q7NHDjncBK48oOl6jMhODFF7JuX7ThYf8fVerCObcuXcSdDwAA0BHV9devLGgjEdbh9dddLbS440Ip0DiwYCR8wUc2+AAAAICHquX8yyb3f5EhyMCFe/764YVgweLz5xB8AAAAdKeW+79sfv9bubB6aemZG2/I/ffXEFqwuPO824vgAwAAoLs83PmXKpeFFgMf1LwptLAI1FlsAwAAALpE5+tf6rjt0rW7FNlCXuapduenwG/v/zH4He4xAACArlIqV662Zf1LW/GHT66CymhFUNGVNS9qtVOXBMnhFwAAAOhC15fZZ+lO779fE38wudutF3aoZ8HIpW/FTGmhrZkdAAAAeBxdX2Y/XP7lrdf2yCIXVpv8UdVulNCrMbnamIo/yt6yYy7becv82rr63oefXFnQ0EADDTTQQAON7mn8mJfBx55BmXza39Mwfmir/kXuyL/4RdD+nK7dpmiwsvOty24FYj8PzbQV1wAAAMDjrM/Pttfb61nVv7Sdf6qWWhdEK6wafxQGT+KWAQAA6E4aY/09tK232cW3H3+sRh4lb99bL/900M0vbx3GXQcAANCF/D7SWIvLbjv+UGkfa8c/BAUXs/eGkrjlAAAAoK524w9X44L56en+teMftwdG8WsDAABAI+3WvxR3JEtbhqmnV45/lOTj5kunikOIPwAAAKChduMP18//Hj5X6o3K4GOF3dxzqrgTwQcAAAA006L+tuyKlWblt6tKju/XScGj7rNx/NwAAADQSMDHNNYq/gAAAADoOKySDgAAAP8pIvoXbYvg1gNwYtIAAAAASUVORK5CYII=;" vertex="1" parent="1">
          <mxGeometry width="843.86" height="370" as="geometry" />
        </mxCell>
      </root>
    </mxGraphModel>
  </diagram>
  <diagram id="eQ7xsZ6jZi-brSHopCe7" name="Resource Tagging">
    <mxGraphModel dx="1488" dy="827" grid="1" gridSize="10" guides="1" tooltips="1" connect="1" arrows="1" fold="1" page="1" pageScale="1" pageWidth="850" pageHeight="1100" math="0" shadow="0">
      <root>
        <mxCell id="0" />
        <mxCell id="1" parent="0" />
        <mxCell id="wi7ETFUxrtK_R7xyOxFK-1" value="Resource Tagging" style="rounded=1;whiteSpace=wrap;html=1;" vertex="1" parent="1">
          <mxGeometry x="360" y="520" width="120" height="40" as="geometry" />
        </mxCell>
      </root>
    </mxGraphModel>
  </diagram>
  <diagram id="JqVL40tyDiYY77CTvQyE" name="Resource Locks">
    <mxGraphModel dx="1488" dy="827" grid="1" gridSize="10" guides="1" tooltips="1" connect="1" arrows="1" fold="1" page="1" pageScale="1" pageWidth="850" pageHeight="1100" math="0" shadow="0">
      <root>
        <mxCell id="0" />
        <mxCell id="1" parent="0" />
        <mxCell id="egiYSwGSMIONl7fdC5a--1" value="Resource Locks" style="rounded=1;whiteSpace=wrap;html=1;" vertex="1" parent="1">
          <mxGeometry x="360" y="560" width="120" height="40" as="geometry" />
        </mxCell>
      </root>
    </mxGraphModel>
  </diagram>
</mxfile>
